HIERARCHY
ROOT Hips
{
	OFFSET 0.00000 0.00000 0.00000
	CHANNELS 6 Xposition Yposition Zposition Zrotation Yrotation Xrotation 
	JOINT LHipJoint
	{
		OFFSET 0 0 0
		CHANNELS 3 Zrotation Yrotation Xrotation
		JOINT LeftHip
		{
			OFFSET 1.64577 -1.42384 0.94276
			CHANNELS 3 Zrotation Yrotation Xrotation
			JOINT LeftKnee
			{
				OFFSET 2.11538 -5.81197 0.00000
				CHANNELS 3 Zrotation Yrotation Xrotation
				JOINT LeftAnkle
				{
					OFFSET 2.36541 -6.49893 0.00000
					CHANNELS 3 Zrotation Yrotation Xrotation
					JOINT LeftToe
					{
						OFFSET 0.17759 -0.48793 1.73865
						CHANNELS 3 Zrotation Yrotation Xrotation
						End Site
						{
							OFFSET 0.00000 -0.00000 0.91205
						}
					}
				}
			}
		}
	}
	JOINT RHipJoint
	{
		OFFSET 0 0 0
		CHANNELS 3 Zrotation Yrotation Xrotation
		JOINT RightHip
		{
			OFFSET -1.43750 -1.42384 0.94276
			CHANNELS 3 Zrotation Yrotation Xrotation
			JOINT RightKnee
			{
				OFFSET -2.10480 -5.78291 0.00000
				CHANNELS 3 Zrotation Yrotation Xrotation
				JOINT RightAnkle
				{
					OFFSET -2.34880 -6.45329 0.00000
					CHANNELS 3 Zrotation Yrotation Xrotation
					JOINT RightToe
					{
						OFFSET -0.22842 -0.62757 1.80469
						CHANNELS 3 Zrotation Yrotation Xrotation
						End Site
						{
							OFFSET -0.00000 -0.00000 0.95886
						}
					}
				}
			}
		}
	}
	JOINT lowerback
	{
		OFFSET 0 0 0
		CHANNELS 3 Zrotation Yrotation Xrotation
		JOINT Chest
		{
			OFFSET 0.06217 1.93758 -0.49272
			CHANNELS 3 Zrotation Yrotation Xrotation
			JOINT Chest2
			{
				OFFSET -0.03114 2.03621 -0.05830
				CHANNELS 3 Zrotation Yrotation Xrotation
				JOINT lowerneck
				{
					OFFSET 0 0 0
					CHANNELS 3 Zrotation Yrotation Xrotation
					JOINT Neck
					{
						OFFSET 0.04421 1.41010 0.26562
						CHANNELS 3 Zrotation Yrotation Xrotation
						JOINT Head
						{
							OFFSET -0.13407 1.43847 0.06181
							CHANNELS 3 Zrotation Yrotation Xrotation
							End Site
							{
								OFFSET -0.04980 1.45844 -0.00689
							}
						}
					}
				}
				JOINT LeftCollar
				{
					OFFSET 0 0 0
					CHANNELS 3 Zrotation Yrotation Xrotation
					JOINT LeftShoulder
					{
						OFFSET 2.18382 1.47753 -0.35694
CHANNELS 3 Zrotation Xrotation Yrotation
						JOINT LeftElbow
						{
OFFSET 0 -5.054600 0.000000
CHANNELS 3 Zrotation Xrotation Yrotation
							JOINT LeftWrist
							{
OFFSET 0 -3.390130 0.000000
CHANNELS 3 Zrotation Xrotation Yrotation
								JOINT lhand
								{
									OFFSET 0 0 0
CHANNELS 3 Zrotation Xrotation Yrotation
									JOINT LFingers
									{
OFFSET 0 -0.572420 -0.000000
CHANNELS 3 Zrotation Xrotation Yrotation
										End Site
										{
OFFSET 0 -0.461500 -0.000000
										}
									}
								}
								JOINT LThumb
								{
OFFSET 0 0.000000 0.000000
CHANNELS 3 Zrotation Xrotation Yrotation
									End Site
									{
OFFSET 0 -0.468550 0.468550
									}
								}
							}
						}
					}
				}
				JOINT RightCollar
				{
					OFFSET 0 0 0
					CHANNELS 3 Zrotation Yrotation Xrotation
					JOINT RightShoulder
					{
						OFFSET -2.06033 1.72839 -0.47437
CHANNELS 3 Zrotation Xrotation Yrotation
						JOINT RightElbow
						{
OFFSET 0 -5.070100 0.000000
CHANNELS 3 Zrotation Xrotation Yrotation
							JOINT RightWrist
							{
OFFSET 0 -3.149570 -0.000000
CHANNELS 3 Zrotation Xrotation Yrotation
								JOINT rhand
								{
									OFFSET 0 0 0
CHANNELS 3 Zrotation Xrotation Yrotation
									JOINT RFingers
									{
OFFSET 0 -0.718190 -0.000000
CHANNELS 3 Zrotation Xrotation Yrotation
										End Site
										{
OFFSET 0 -0.579020 -0.000000
										}
									}
								}
								JOINT RThumb
								{
OFFSET 0 0.000000 0.000000
CHANNELS 3 Zrotation Xrotation Yrotation
									End Site
									{
OFFSET 0 -0.587860 0.587860
									}
								}
							}
						}
					}
				}
			}
		}
	}
}
MOTION
Frames: 10
Frame Time: 0.008333333333333333
22.192400 15.329100 1.197000 -157.379000 -82.693700 155.036000 0.000000 0.000000 0.000000 -25.902100 -18.974100 1.469500 2.558500 9.943400 28.793700 2.937700 16.047100 -40.997400 0.973200 6.280200 17.599600 0.000000 0.000000 0.000000 25.529900 17.301000 -1.883300 -2.148000 -9.167700 26.321300 -2.886100 -19.928700 -43.715800 -0.068800 1.692300 -4.656000 -3.907900 0.902600 8.841400 -0.513500 0.757600 0.905200 1.573100 0.419400 -4.064000 0.105700 -5.785200 -13.583000 1.562600 -8.519000 18.655200 -0.439300 -3.954700 8.081500 -0.000000 0.000000 0.000000 4.854800 4.807900 -32.896500 14.165500 -22.970800 2.892400 16.735100 15.256200 -9.784800 0.000000 0.000000 0.000000 -7.125000 0.000000 0.000000 -8.981400 40.030600 -1.110500 -0.000000 0.000000 0.000000 -7.004600 7.638400 44.897400 -18.056600 -28.229600 -4.576000 -13.804800 -17.748500 -0.447800 0.000000 0.000000 0.000000 7.125000 0.000000 -0.000000 9.975700 29.448100 3.835100
22.195263 15.326157 1.199421 -157.637925 -82.686020 155.432264 0.000000 0.000000 0.000000 -25.888758 -19.047425 1.388212 2.528758 9.890061 28.621353 2.925241 16.116060 -40.990449 0.832821 5.817457 16.257003 0.000000 0.000000 0.000000 25.419983 17.306464 -2.167266 -2.175336 -9.222192 26.492899 -2.887888 -19.818456 -43.635767 -0.072481 1.736949 -4.779345 -3.873193 0.990882 8.578126 -0.621879 0.887209 1.022343 1.429615 0.475319 -3.800114 0.331032 -5.918173 -12.977063 1.564965 -8.728108 18.269250 -0.467326 -4.055234 7.836590 0.000000 0.000000 0.000000 5.172039 3.886603 -32.179014 13.923440 -22.625137 2.798622 18.313875 11.705531 -10.325062 0.000000 0.000000 0.000000 -7.125000 0.000000 0.000000 -7.705851 40.723789 -0.819653 0.000000 0.000000 0.000000 -6.848994 7.164575 44.281640 -17.743517 -27.827438 -4.428925 -13.872920 -17.570136 -0.530189 0.000000 0.000000 0.000000 7.125000 0.000000 0.000000 9.914820 29.365093 3.830885
22.196481 15.329553 1.202445 -158.340436 -82.702820 156.190396 0.000000 0.000000 0.000000 -26.007063 -19.238714 1.441001 2.508153 9.852711 28.501062 2.970525 16.125725 -41.202300 0.909390 6.067329 16.982715 0.000000 0.000000 0.000000 25.238071 17.158254 -2.354320 -2.184507 -9.240253 26.549721 -2.813927 -19.876216 -43.371028 -0.096225 1.998830 -5.502520 -4.030890 1.037191 8.310498 -0.618563 0.949588 1.236519 1.519836 0.497725 -3.434110 0.244663 -5.976679 -12.382423 1.762933 -8.800346 17.806332 -0.366480 -4.093421 7.592574 0.000000 0.000000 0.000000 4.979130 2.905024 -30.210349 13.686294 -22.284343 2.708120 19.982221 9.677748 -10.616556 0.000000 0.000000 0.000000 -7.125000 0.000000 0.000000 -6.293332 41.178642 -0.596431 0.000000 0.000000 0.000000 -6.977336 6.699059 43.946458 -17.679868 -27.745288 -4.399172 -13.744483 -17.290867 -0.382019 0.000000 0.000000 0.000000 7.125000 0.000000 0.000000 10.029100 29.514118 3.840186
22.198750 15.336268 1.204904 -159.208816 -82.678801 157.082825 0.000000 0.000000 0.000000 -26.113560 -19.299353 1.449979 2.495463 9.829608 28.426619 2.961494 16.178280 -41.199837 1.035692 6.472291 18.161293 0.000000 0.000000 0.000000 25.095121 17.136609 -2.414614 -2.182630 -9.236542 26.538202 -2.748525 -19.971822 -43.171287 -0.115089 2.187223 -6.023428 -4.196296 1.107681 8.275318 -0.618882 1.030287 1.326401 1.604571 0.535648 -3.328742 0.303746 -5.950593 -12.150512 1.826947 -8.783914 17.707462 -0.343365 -4.081850 7.519518 0.000000 0.000000 0.000000 4.876308 1.976821 -28.402781 13.377563 -21.837703 2.592174 21.014784 8.606080 -10.776047 0.000000 0.000000 0.000000 -7.125000 0.000000 0.000000 -5.407685 41.443639 -0.477274 0.000000 0.000000 0.000000 -6.999268 6.614613 43.465627 -17.779468 -27.873888 -4.445677 -13.456618 -17.149630 -0.492524 0.000000 0.000000 0.000000 7.125000 0.000000 0.000000 10.241149 29.399403 3.952119
22.206483 15.338944 1.208442 -159.817965 -82.716513 157.787965 0.000000 0.000000 0.000000 -26.181477 -19.333509 1.329418 2.489390 9.818598 28.391138 2.935675 16.290461 -41.164023 1.028828 6.451997 18.101699 0.000000 0.000000 0.000000 24.947778 17.163398 -2.550085 -2.181299 -9.233919 26.529890 -2.765659 -19.872890 -43.163950 -0.101818 2.056664 -5.662442 -4.255390 1.228902 8.182082 -0.647539 1.190097 1.353853 1.591895 0.613442 -3.258277 0.151737 -6.055116 -11.874490 2.042785 -8.948829 17.763259 -0.258790 -4.156105 7.508499 0.000000 0.000000 0.000000 4.451477 1.737304 -26.416051 13.578559 -22.129091 2.667325 23.483609 9.318334 -12.215576 0.000000 0.000000 0.000000 -7.125000 0.000000 0.000000 -3.424174 43.231343 -0.138210 0.000000 0.000000 0.000000 -6.715678 6.632772 42.402142 -17.797727 -27.897343 -4.454148 -13.695080 -16.925353 -1.013106 0.000000 0.000000 0.000000 7.125000 0.000000 0.000000 10.005545 28.873997 3.985622
22.212639 15.339715 1.216211 -159.633853 -82.699443 157.575127 0.000000 0.000000 0.000000 -26.186455 -19.178389 1.292834 2.499157 9.836304 28.448133 2.884388 16.496634 -41.082482 0.945828 6.193823 17.347947 0.000000 0.000000 0.000000 24.954258 17.162454 -2.499360 -2.168435 -9.208372 26.449395 -2.809259 -19.727398 -43.232326 -0.083038 1.859085 -5.116327 -4.134743 1.313844 8.209963 -0.605597 1.314284 1.425788 1.554250 0.671586 -3.204943 -0.035292 -6.002039 -12.050935 2.122094 -8.878796 18.088369 -0.210049 -4.119750 7.658495 0.000000 0.000000 0.000000 4.022732 1.418641 -25.372586 13.504264 -22.021497 2.639313 22.399291 8.928379 -12.810419 0.000000 0.000000 0.000000 -7.125000 0.000000 0.000000 -4.498054 43.749874 -0.134440 0.000000 0.000000 0.000000 -6.270186 6.461737 41.016980 -17.670211 -27.732898 -4.394756 -13.766843 -16.743770 -0.909301 0.000000 0.000000 0.000000 7.125000 0.000000 0.000000 9.960186 28.979719 3.941639
22.221894 15.340850 1.218546 -157.315022 -82.642050 155.326110 0.000000 0.000000 0.000000 -25.801656 -19.152333 1.097985 2.511478 9.858730 28.520567 2.836559 16.580964 -40.927300 0.838073 5.838672 16.317264 0.000000 0.000000 0.000000 25.302033 17.427635 -2.435643 -2.152821 -9.177422 26.351951 -2.832383 -19.876093 -43.448412 -0.069114 1.695493 -4.664833 -3.790978 1.318299 8.254610 -0.492662 1.354124 1.411476 1.472915 0.690056 -3.241701 -0.067178 -5.940543 -12.044161 2.047544 -8.771547 18.097049 -0.217752 -4.077025 7.656521 0.000000 0.000000 0.000000 3.630241 1.037527 -24.594780 13.248937 -21.650861 2.544470 24.078431 5.470488 -2.003293 0.000000 0.000000 0.000000 -7.125000 0.000000 0.000000 -2.018652 32.169427 -0.634290 0.000000 0.000000 0.000000 -5.615998 6.088219 39.539308 -17.269758 -27.211830 -4.210038 -13.484878 -16.845003 -0.423102 0.000000 0.000000 0.000000 7.125000 0.000000 0.000000 10.226289 29.469948 3.928722
22.227272 15.336522 1.220175 -156.236302 -82.790365 154.309661 0.000000 0.000000 0.000000 -25.742835 -19.402562 1.049471 2.522322 9.878412 28.583921 2.882575 16.418288 -41.016983 0.771917 5.608215 15.652165 0.000000 0.000000 0.000000 25.367281 17.511538 -2.397088 -2.133697 -9.139194 26.231733 -2.895880 -19.913181 -43.744439 -0.060055 1.581056 -4.349124 -3.607265 1.322997 8.218463 -0.522547 1.377486 1.437162 1.337327 0.698444 -3.191111 0.166715 -5.940561 -12.049578 1.966646 -8.787880 17.931001 -0.278868 -4.078542 7.588502 0.000000 0.000000 0.000000 3.523124 0.541304 -25.319891 12.996122 -21.281363 2.451970 24.262894 7.192393 -5.779777 0.000000 0.000000 0.000000 -7.125000 0.000000 0.000000 -2.118713 36.299999 -0.424179 0.000000 0.000000 0.000000 -4.734457 5.413535 37.798915 -16.753934 -26.531818 -3.977025 -13.636110 -15.856276 -0.415524 0.000000 0.000000 0.000000 7.125000 0.000000 0.000000 10.109706 29.479126 3.880605
22.237146 15.343080 1.223680 -155.057280 -82.877762 153.141262 0.000000 0.000000 0.000000 -25.558781 -19.419172 0.914650 2.525596 9.884298 28.602943 2.913915 16.136677 -40.953594 0.935367 6.158926 17.246739 0.000000 0.000000 0.000000 25.474208 17.565142 -2.359157 -2.125159 -9.122077 26.177913 -2.912052 -20.023980 -43.899375 -0.058371 1.558859 -4.288046 -3.491643 1.329811 8.215117 -0.462880 1.399654 1.510257 1.332744 0.706179 -3.113309 0.378449 -5.914770 -11.724387 1.872336 -8.726174 17.297140 -0.310864 -4.056823 7.308635 0.000000 0.000000 0.000000 3.390418 -0.294893 -26.712189 12.506942 -20.560231 2.277399 24.816673 9.529026 -10.010657 0.000000 0.000000 0.000000 -7.125000 0.000000 0.000000 -1.950095 40.975413 -0.187902 0.000000 0.000000 0.000000 -4.180983 4.702738 37.026074 -16.414747 -26.079769 -3.826483 -13.941616 -15.358075 -0.499973 0.000000 0.000000 0.000000 7.125000 0.000000 0.000000 9.864399 29.396311 3.803480
22.243106 15.340318 1.228694 -155.326938 -82.946646 153.409214 0.000000 0.000000 0.000000 -25.626245 -19.348692 0.896185 2.516525 9.867896 28.549934 2.886229 16.171124 -40.852835 0.838708 5.840841 16.323489 0.000000 0.000000 0.000000 25.379351 17.588298 -2.402481 -2.130363 -9.132446 26.210433 -2.924139 -20.052778 -43.972350 -0.063487 1.625526 -4.471753 -3.659459 1.267802 8.150077 -0.302618 1.312471 1.634527 1.605119 0.660326 -2.951400 0.264280 -5.881417 -11.523907 1.828694 -8.610583 16.787971 -0.277329 -4.020516 7.109218 0.000000 0.000000 0.000000 2.919351 -0.885738 -27.634002 12.394759 -20.393887 2.237973 25.094558 9.438777 -9.056517 0.000000 0.000000 0.000000 -7.125000 0.000000 0.000000 -1.608224 39.956837 -0.199207 0.000000 0.000000 0.000000 -4.193383 3.994316 37.523821 -16.369550 -26.019176 -3.806595 -13.923538 -15.245859 -0.288692 0.000000 0.000000 0.000000 7.125000 0.000000 0.000000 9.899481 29.610517 3.765764
